<?xml version="1.0" encoding="UTF-8"?>
<svg width="200mm" height="200mm" version="1.1" viewBox="0 0 200 200" xmlns="http://www.w3.org/2000/svg">
 <g transform="translate(-5.3634 -33.655)">
  <g transform="matrix(.41985 0 0 .41985 67.879 99.864)">
   <path d="m229.62-29.121-9.6778 103.6 12.56 97.964-84.88-60.18-91.119-38.105 94.557-43.418z" fill="#008000"/>
   <ellipse cx="56.353" cy="78.034" rx="140.54" ry="67.302" fill="#008000"/>
   <g>
    <rect transform="rotate(45)" x="10.355" y="47.236" width="51.581" height="17.56"/>
    <rect transform="rotate(135)" x="30.225" y="-44.925" width="51.581" height="17.56"/>
    <path d="m-28.896 131.15c-2.7638-2.7638 37.727-39.044 60.624-13.892 21.668 23.802-12.33 8.0372-19.182 6.7446-6.686-1.2613-14.658 1.4931-16.369 15.725-7.8445-2.3459-14.771-3.774-25.073-8.5777z"/>
   </g>
  </g>
  <g transform="matrix(.41985 0 0 .41985 63.151 99.097)" fill="#f00">
   <path transform="scale(.26458)" d="m380-437.48a878.94 748.57 0 0 0-878.94 748.57 878.94 748.57 0 0 0 878.94 748.57 878.94 748.57 0 0 0 878.94-748.57 878.94 748.57 0 0 0-878.94-748.57zm-11.428 89.365a780 654.35 0 0 1 780 654.35 780 654.35 0 0 1-780 654.35 780 654.35 0 0 1-780-654.35 780 654.35 0 0 1 780-654.35z"/>
   <rect transform="matrix(.73396 .67919 -.77442 .63267 0 0)" x="109.42" y="-214.25" width="25.445" height="417.48"/>
  </g>
 </g>
</svg>
